# xmcd
# 
# Track frame offsets:
#     150
#     21252
#     42865
#     68151
#     97686
#     118800
#     143715
#     168206
#     189273
#     211333
#     231044
# 
# Disc length: 3366
# 
# Revision: 2
# Processed by: cddbd v1.5.2PL0 Copyright (c) Steve Scherf et al.
# Submitted via: fre:ac v1.0.27
# 
DISCID=890d240b
DTITLE=Various Artist - Serious Beats 77 [CD 1)
DYEAR=2014
DGENRE=Dance
TTITLE0=Showtek - We Like To Party
TTITLE1=Fatboy Slim and Riva Starr ft. Beardyman - Eat Sleep Rave Repeat (Dimitri Vegas and Like Mike and Ummet Ozcan)
TTITLE2=Klingande - Jubel (Zero Set Remix)
TTITLE3=Sander Van Doorn - Right Here Right Now (Neon)
TTITLE4=Martin Garrix and Jay Hardway - Wizard
TTITLE5=Calvin Harris and Alesso ft. Hurts - Under Control
TTITLE6=Hardwell ft. Matthew Koma - Dare You
TTITLE7=Borgeous - Invincible
TTITLE8=R3hab and Nervo and Ummet Ozcan - Revolution (Vocal Mix)
TTITLE9=Dvbbs and Vinai - Raveology
TTITLE10=New World Sound and Thomas Newson - Flute
EXTD=
EXTT0=
EXTT1=
EXTT2=
EXTT3=
EXTT4=
EXTT5=
EXTT6=
EXTT7=
EXTT8=
EXTT9=
EXTT10=
PLAYORDER=
